<svg width="287" height="287" viewBox="0 0 287 287" fill="none" xmlns="http://www.w3.org/2000/svg">
<path d="M49.9908 45.0722C50.6955 45.8866 51.1319 46.8134 51.2842 47.8394C51.451 48.8641 51.3415 49.9139 50.969 50.9731C50.5965 52.0323 49.9557 53.0428 49.0465 54.0045C48.0448 55.0772 46.9399 55.8224 45.7609 56.2375C44.582 56.6527 43.4161 56.7298 42.2356 56.486C41.0697 56.2408 39.9897 55.651 39.0099 54.7152C38.0316 53.7939 37.3651 52.7562 37.0542 51.5983C36.7288 50.4417 36.7536 49.2677 37.0851 48.0804C37.4298 46.8773 38.1037 45.7467 39.1199 44.6727C40.0291 43.711 40.9926 43.0226 42.0367 42.5758C43.0676 42.1449 44.1079 41.9767 45.1429 42.0727C46.1779 42.1687 47.1218 42.5512 48.0023 43.2032L46.398 44.902C45.8057 44.5167 45.1712 44.3109 44.5076 44.269C43.8454 44.2415 43.1832 44.3752 42.521 44.6699C41.8602 44.9792 41.2139 45.4482 40.6126 46.0889C39.9043 46.8419 39.4326 47.6173 39.1988 48.4295C38.965 49.2417 38.9652 50.0472 39.198 50.8315C39.4309 51.6158 39.9082 52.3485 40.6129 53.0018C41.3189 53.6697 42.0765 54.0985 42.8709 54.2897C43.6654 54.4808 44.4677 54.4369 45.2621 54.1447C46.0578 53.8671 46.8164 53.3439 47.5102 52.5922C48.126 51.9502 48.5634 51.2805 48.8249 50.6122C49.0997 49.9281 49.1868 49.2757 49.1113 48.6089C49.0371 47.9566 48.7898 47.3347 48.3561 46.7591L49.9604 45.0603L49.9908 45.0722ZM147.966 0.0450701L142.17 12.2028L143.328 12.1997L137.357 0.105002L133.811 0.121023L133.88 13.2521L136.093 13.2406L136.03 0.82656L135.315 0.862515L141.499 13.2014L143.975 13.1805L150.025 0.750675L149.303 0.714005L149.367 13.1426L151.579 13.1311L151.51 0L147.964 0.01602L147.966 0.0450701ZM237.117 53.5264C236.081 52.4493 235.389 51.2968 235.015 50.0861C234.64 48.8753 234.606 47.6922 234.909 46.5221C235.214 45.3665 235.851 44.3125 236.836 43.3732C237.82 42.4339 238.895 41.8379 240.061 41.5997C241.24 41.3456 242.42 41.4283 243.618 41.861C244.814 42.2791 245.925 43.0418 246.961 44.1189C247.998 45.196 248.689 46.3485 249.064 47.5593C249.438 48.77 249.473 49.9532 249.169 51.1233C248.864 52.2789 248.227 53.3329 247.243 54.2722C246.258 55.2115 245.184 55.8075 244.018 56.0457C242.839 56.2997 241.658 56.217 240.461 55.7844C239.264 55.3663 238.154 54.6035 237.117 53.5264ZM238.614 52.101C239.344 52.8692 240.126 53.3984 240.929 53.6912C241.733 53.984 242.545 54.0418 243.363 53.85C244.167 53.6595 244.934 53.2379 245.622 52.5747C246.323 51.9102 246.783 51.1653 247.004 50.3689C247.224 49.5725 247.208 48.7538 246.958 47.9418C246.707 47.1153 246.21 46.3258 245.48 45.5576C244.751 44.8039 243.985 44.2734 243.166 43.9819C242.348 43.6904 241.536 43.6326 240.733 43.8231C239.929 44.0136 239.161 44.4352 238.474 45.0984C237.772 45.7629 237.312 46.5078 237.092 47.3042C236.871 48.1006 236.887 48.9193 237.153 49.7445C237.405 50.571 237.902 51.3605 238.632 52.1287L238.614 52.101ZM285.333 144.751L285.294 147.054L273.221 146.822L273.261 144.519L285.333 144.751ZM286.511 139.341L286.26 152.502L284.234 152.467L284.484 139.307L286.511 139.341ZM247.303 241.325L238.106 231.956L236.45 233.572L245.064 242.335L244.996 240.789L241.013 244.696C240.447 245.246 239.874 245.547 239.276 245.587C238.68 245.641 238.161 245.411 237.693 244.941C237.225 244.471 237.014 243.933 237.063 243.343C237.112 242.753 237.426 242.182 237.991 241.618L242.135 237.549L240.729 236.125L236.518 240.259C235.819 240.952 235.327 241.671 235.072 242.412C234.804 243.168 234.754 243.905 234.907 244.624C235.061 245.342 235.429 245.997 236.009 246.574C236.575 247.152 237.225 247.532 237.944 247.7C238.664 247.869 239.393 247.832 240.161 247.571C240.915 247.312 241.649 246.85 242.348 246.156L247.315 241.295L247.303 241.325ZM138.505 280.383L138.49 278.451L147.664 278.405L147.679 280.337L138.505 280.383ZM146.156 279.392L147.057 273.524L148.172 274.814L137.973 274.866L137.967 272.875L149.427 272.825L148.399 279.392L149.482 285.957L138.11 286.014L138.104 284.022L148.216 283.978L147.118 285.279L146.158 279.421L146.156 279.392ZM45.0696 245.497L43.413 243.891L51.831 235.243L53.4876 236.85L45.0696 245.497ZM48.2114 250.044L38.7686 240.873L40.1893 239.41L49.632 248.581L48.2114 250.044ZM13.3494 144.654C13.3174 143.661 13.1229 142.815 12.7645 142.1C12.3916 141.388 11.901 140.832 11.2651 140.45C10.6293 140.069 9.90881 139.886 9.0906 139.917C8.25653 139.934 7.54411 140.16 6.92162 140.568C6.31368 140.975 5.83795 141.546 5.49445 142.28C5.16549 143.013 5.00971 143.877 5.02713 144.871L5.17789 150.701L7.04959 150.648L6.90812 144.92C6.89339 144.115 7.08358 143.468 7.48001 142.993C7.87645 142.517 8.43949 142.261 9.14271 142.255C9.83006 142.236 10.3932 142.463 10.815 142.908C11.2381 143.367 11.4709 143.991 11.4856 144.795L11.6204 150.289L12.6234 149.231L0.32251 149.548L0.386506 151.856L13.5215 151.522L13.348 144.64L13.3494 144.654Z" fill="black"/>
</svg>
