<svg width="287" height="287" viewBox="0 0 287 287" fill="none" xmlns="http://www.w3.org/2000/svg">
<path d="M49.9908 45.3769C50.6955 46.1913 51.1319 47.1181 51.2842 48.1441C51.451 49.1687 51.3415 50.2186 50.969 51.2778C50.5965 52.337 49.9557 53.3475 49.0465 54.3092C48.0448 55.3819 46.9399 56.1271 45.7609 56.5422C44.582 56.9574 43.4161 57.0344 42.2356 56.7906C41.0697 56.5455 39.9897 55.9557 39.0099 55.0199C38.0316 54.0986 37.3651 53.0609 37.0542 51.903C36.7288 50.7464 36.7536 49.5724 37.0851 48.3851C37.4298 47.182 38.1037 46.0514 39.1199 44.9774C40.0291 44.0156 40.9926 43.3273 42.0367 42.8805C43.0676 42.4496 44.1079 42.2814 45.1429 42.3774C46.1779 42.4733 47.1218 42.8559 48.0023 43.5078L46.398 45.2067C45.8057 44.8214 45.1712 44.6156 44.5076 44.5737C43.8454 44.5462 43.1832 44.6798 42.521 44.9746C41.8602 45.2839 41.2139 45.7529 40.6126 46.3936C39.9043 47.1466 39.4326 47.922 39.1988 48.7342C38.965 49.5464 38.9652 50.3519 39.198 51.1362C39.4309 51.9205 39.9082 52.6531 40.6129 53.3065C41.3189 53.9744 42.0765 54.4032 42.8709 54.5944C43.6654 54.7855 44.4677 54.7416 45.2621 54.4494C46.0578 54.1718 46.8164 53.6485 47.5102 52.8969C48.126 52.2549 48.5634 51.5852 48.8249 50.9169C49.0997 50.2327 49.1868 49.5804 49.1113 48.9135C49.0371 48.2612 48.7898 47.6394 48.3561 47.0638L49.9604 45.365L49.9908 45.3769ZM147.966 0.349758L142.17 12.5075L143.328 12.5044L137.357 0.40969L133.811 0.425711L133.88 13.5568L136.093 13.5453L136.03 1.13125L135.315 1.1672L141.499 13.5061L143.975 13.4852L150.025 1.05536L149.303 1.01869L149.367 13.4473L151.579 13.4358L151.51 0.304688L147.964 0.320708L147.966 0.349758ZM237.117 53.8311C236.081 52.754 235.389 51.6015 235.015 50.3908C234.64 49.18 234.606 47.9968 234.909 46.8267C235.214 45.6712 235.851 44.6171 236.836 43.6778C237.82 42.7385 238.895 42.1425 240.061 41.9044C241.24 41.6503 242.42 41.733 243.618 42.1656C244.814 42.5837 245.925 43.3465 246.961 44.4236C247.998 45.5007 248.689 46.6532 249.064 47.864C249.438 49.0747 249.473 50.2579 249.169 51.428C248.864 52.5836 248.227 53.6376 247.243 54.5769C246.258 55.5162 245.184 56.1122 244.018 56.3504C242.839 56.6044 241.658 56.5217 240.461 56.0891C239.264 55.671 238.154 54.9082 237.117 53.8311ZM238.614 52.4057C239.344 53.1739 240.126 53.7031 240.929 53.9959C241.733 54.2887 242.545 54.3465 243.363 54.1547C244.167 53.9642 244.934 53.5426 245.622 52.8794C246.323 52.2149 246.783 51.4699 247.004 50.6736C247.224 49.8772 247.208 49.0585 246.958 48.2465C246.707 47.42 246.21 46.6305 245.48 45.8623C244.751 45.1086 243.985 44.5781 243.166 44.2866C242.348 43.9951 241.536 43.9373 240.733 44.1278C239.929 44.3183 239.161 44.7399 238.474 45.4031C237.772 46.0676 237.312 46.8125 237.092 47.6089C236.871 48.4053 236.887 49.224 237.153 50.0492C237.405 50.8757 237.902 51.6652 238.632 52.4334L238.614 52.4057ZM285.333 145.055L285.294 147.358L273.221 147.127L273.261 144.824L285.333 145.055ZM286.511 139.646L286.26 152.806L284.234 152.772L284.484 139.611L286.511 139.646ZM247.303 241.63L238.106 232.261L236.45 233.876L245.064 242.64L244.996 241.093L241.013 245.001C240.447 245.551 239.874 245.852 239.276 245.892C238.68 245.946 238.161 245.715 237.693 245.245C237.225 244.775 237.014 244.238 237.063 243.648C237.112 243.058 237.426 242.487 237.991 241.923L242.135 237.854L240.729 236.43L236.518 240.563C235.819 241.257 235.327 241.975 235.072 242.716C234.804 243.473 234.754 244.21 234.907 244.928C235.061 245.647 235.429 246.301 236.009 246.878C236.575 247.456 237.225 247.836 237.944 248.005C238.664 248.174 239.393 248.137 240.161 247.876C240.915 247.617 241.649 247.154 242.348 246.461L247.315 241.599L247.303 241.63ZM138.505 280.687L138.49 278.755L147.664 278.709L147.679 280.641L138.505 280.687ZM146.156 279.696L147.057 273.829L148.172 275.119L137.973 275.171L137.967 273.179L149.427 273.129L148.399 279.697L149.482 286.262L138.11 286.318L138.104 284.327L148.216 284.283L147.118 285.584L146.158 279.725L146.156 279.696ZM45.0696 245.802L43.413 244.196L51.831 235.548L53.4876 237.154L45.0696 245.802ZM48.2114 250.348L38.7686 241.178L40.1893 239.715L49.632 248.886L48.2114 250.348ZM13.3494 144.959C13.3174 143.966 13.1229 143.119 12.7645 142.405C12.3916 141.692 11.901 141.136 11.2651 140.755C10.6293 140.374 9.90881 140.19 9.0906 140.221C8.25653 140.239 7.54411 140.465 6.92162 140.873C6.31368 141.28 5.83795 141.851 5.49445 142.585C5.16549 143.318 5.00971 144.182 5.02713 145.176L5.17789 151.006L7.04959 150.953L6.90812 145.224C6.89339 144.42 7.08358 143.773 7.48001 143.297C7.87645 142.822 8.43949 142.565 9.14271 142.56C9.83006 142.541 10.3932 142.768 10.815 143.213C11.2381 143.672 11.4709 144.295 11.4856 145.099L11.6204 150.594L12.6234 149.536L0.32251 149.853L0.386506 152.161L13.5215 151.827L13.348 144.944L13.3494 144.959Z" fill="white"/>
</svg>
