<svg width="458" height="83" viewBox="0 0 458 83" fill="none" xmlns="http://www.w3.org/2000/svg">
<path fill-rule="evenodd" clip-rule="evenodd" d="M75.6576 51C72.9975 51 70.6485 52.6374 69.3553 54.9619C63.0379 66.3173 50.9162 74 37 74C16.5655 74 0 57.4345 0 37C0 16.5655 16.5655 0 37 0C50.9162 0 63.0379 7.68269 69.3553 19.0381C70.6485 21.3626 72.9975 23 75.6576 23V23C79.2171 23 82.0419 20.1474 82.4208 16.6081C82.9198 11.9478 84.0102 8.77662 86.3934 6.3934C90.7868 2 97.8579 2 112 2H428C442.142 2 449.213 2 453.607 6.3934C458 10.7868 458 17.8579 458 32V42C458 56.1421 458 63.2132 453.607 67.6066C449.213 72 442.142 72 428 72H112C97.8579 72 90.7868 72 86.3934 67.6066C84.0102 65.2234 82.9198 62.0522 82.4208 57.3919C82.0419 53.8526 79.2171 51 75.6576 51V51Z" fill="url(#paint0_linear_2394_17)"/>
<path d="M16 17H22.1267L25.8231 36.1868L22.1442 55.3737H16.0174L19.6851 36.2077L16 17Z" fill="#1F1F1F"/>
<path d="M58.5885 17H52.4618L48.7443 36.166L52.4443 55.332H58.5711L54.9034 36.166L58.5885 17Z" fill="#1F1F1F"/>
<path d="M39.128 33.7912L32.1309 17H38.2612L46.8623 37.5788L47.3288 38.5827L35.4524 38.5832C38.1344 45.0002 45.2067 53.2002 50.1951 58.0217C53.2047 60.9305 55.7518 63.5325 56.857 66.1568C59.3744 72.1347 56.5691 79.0216 50.5912 81.5391C44.6132 84.0565 37.7263 81.2513 35.2088 75.2733C34.3253 73.1753 34.0086 70.9764 33.9374 68.7093C33.897 67.4231 33.9073 64.5706 33.9374 62.9148C34.0853 54.7564 32.5695 46.3928 30.2451 40.8714C30.2446 40.8702 30.2451 40.8688 30.2464 40.8683L30.2473 40.868L30.2481 40.8677C30.2481 40.8677 30.2485 40.8672 30.2483 40.8667L30.2471 40.8638L30.2469 40.8633L30.2457 40.8604C29.2516 38.5132 28.3001 36.145 27.3193 33.7912H39.128Z" fill="url(#paint1_linear_2394_17)"/>
<defs>
<linearGradient id="paint0_linear_2394_17" x1="377.622" y1="14.947" x2="354.952" y2="143.449" gradientUnits="userSpaceOnUse">
<stop stop-color="#FFC452"/>
<stop offset="0.605751" stop-color="#FF7DE3"/>
<stop offset="0.99" stop-color="#836BE2"/>
</linearGradient>
<linearGradient id="paint1_linear_2394_17" x1="58" y1="82" x2="27" y2="17" gradientUnits="userSpaceOnUse">
<stop stop-color="#FFC452"/>
<stop offset="0.15" stop-color="#F8A29A"/>
<stop offset="0.29" stop-color="#FF7DE3"/>
<stop offset="0.385" stop-color="#F696E1"/>
<stop offset="1" stop-color="white"/>
</linearGradient>
</defs>
</svg>
