<svg width="664" height="1021" viewBox="0 0 664 1021" fill="none" xmlns="http://www.w3.org/2000/svg">
<path d="M-0.000366211 0.343018H95.5218L153.152 299.486L95.7936 598.63H0.271484L57.4546 299.811L-0.000366211 0.343018Z" fill="#1F1F1F"/>
<path d="M664 0.343018H568.478L510.518 299.161L568.206 597.98H663.728L606.545 299.161L664 0.343018Z" fill="#1F1F1F"/>
<path d="M360.59 262.137L251.499 0.344116H347.076L481.176 321.19L488.45 336.842L303.284 336.85C345.1 436.898 455.364 564.745 533.139 639.916C580.061 685.267 619.774 725.836 637.004 766.751C676.254 859.954 632.516 967.328 539.313 1006.58C446.111 1045.83 338.736 1002.09 299.486 908.888C285.711 876.177 280.773 841.894 279.663 806.548C279.033 786.494 279.195 742.022 279.663 716.205C281.969 589.007 258.336 458.609 222.096 372.525C222.088 372.505 222.097 372.484 222.116 372.476L222.13 372.471L222.143 372.467C222.143 372.467 222.15 372.46 222.146 372.451L222.127 372.407L222.124 372.398L222.105 372.354C206.606 335.758 191.773 298.835 176.48 262.137H360.59Z" fill="url(#paint0_linear_45_696)"/>
<defs>
<linearGradient id="paint0_linear_45_696" x1="545.003" y1="1003.4" x2="339.607" y2="-46.3879" gradientUnits="userSpaceOnUse">
<stop stop-color="#FFC452"/>
<stop offset="0.15" stop-color="#F8A29A"/>
<stop offset="0.29" stop-color="#FF7DE3"/>
<stop offset="0.385" stop-color="#F696E1"/>
<stop offset="1" stop-color="white"/>
</linearGradient>
</defs>
</svg>
