<svg width="1242" height="118" viewBox="0 0 1242 118" fill="none" xmlns="http://www.w3.org/2000/svg">
<path d="M1015.84 53.5681C1015.84 24.0485 991.905 0.118164 962.386 0.118164C940.764 0.118164 919.533 11.218 898.301 22.3179C877.07 33.4177 855.839 44.5176 834.217 44.5176C812.595 44.5176 791.364 33.4177 770.133 22.3179C748.902 11.218 727.671 0.118164 706.049 0.118164C676.529 0.118164 652.599 24.0484 652.599 53.568C652.599 83.0875 676.529 107.018 706.049 107.018C727.671 107.018 748.902 95.9183 770.133 84.8185C791.364 73.7186 812.595 62.6188 834.217 62.6188C855.839 62.6188 877.07 73.7186 898.301 84.8185C919.533 95.9183 940.764 107.018 962.386 107.018C991.905 107.018 1015.84 83.0876 1015.84 53.5681Z" fill="url(#paint0_linear_45_756)"/>
<path fill-rule="evenodd" clip-rule="evenodd" d="M238.053 1.91455H237.492H220.877H194.046H176.87V14.7125C176.87 31.4396 176.87 60.2911 176.87 76.3446C176.87 79.3757 176.758 83.5294 176.084 85.3256C173.839 91.1632 168.675 92.2859 168.675 92.2859L159.694 117.882H176.87L181.36 105.084H229.858V117.882H247.034V92.2859H238.053V1.91455ZM220.765 92.3982H189.892C190.229 91.8369 190.566 91.1633 190.903 90.4897C193.036 86.336 193.822 80.6106 193.822 73.7626C193.822 58.0458 193.822 30.7661 193.822 14.7125H220.652V92.3982H220.765ZM133.761 1.91455L104.573 71.6296V1.91455H87.3967V105.196H104.573L133.761 35.4811V105.196H150.937V1.91455H133.761ZM549.02 1.91455H548.459H531.844H505.013H487.837V14.7125C487.837 31.4396 487.837 60.2911 487.837 76.3446C487.837 79.3757 487.725 83.5294 487.051 85.3256C484.806 91.1632 479.642 92.2859 479.642 92.2859L470.661 117.882H487.837L492.328 105.084H540.825V117.882H558.001V92.2859H549.02V1.91455ZM531.844 92.3982H500.972C501.309 91.8369 501.646 91.1633 501.982 90.4897C504.115 86.336 504.901 80.6106 504.901 73.7626C504.901 58.0458 504.901 30.7661 504.901 14.7125H531.732V92.3982H531.844ZM443.606 1.91455L414.418 71.6296V1.91455H397.241V105.196H414.418L443.606 35.4811V105.196H460.782V1.91455H443.606ZM642.086 1.91455H624.461L604.927 47.1564H593.925V1.91455H576.749V105.196H593.925V59.9543H605.264L627.716 105.196H646.352L620.419 53.5553L642.086 1.91455Z" fill="#1F1F1F"/>
<path fill-rule="evenodd" clip-rule="evenodd" d="M35.3068 12.9161C43.5019 12.9161 50.3499 24.1423 52.1461 43.227H69.6591C66.7402 16.1717 52.4829 0.118164 35.3068 0.118164C15.9976 0.118164 0.393066 20.3254 0.393066 53.5551C0.393066 86.8971 15.9976 106.992 35.3068 106.992C52.4829 106.992 66.7402 90.9385 69.6591 63.8833H52.1461C50.3499 83.0802 43.5019 94.3064 35.3068 94.3064C25.7644 94.3064 18.0182 78.9264 18.0182 53.5551C18.0182 28.1838 25.7644 12.9161 35.3068 12.9161Z" fill="#1F1F1F"/>
<path fill-rule="evenodd" clip-rule="evenodd" d="M263.481 1.90674H280.007L288.806 53.6608L278.883 105.415H262.357L272.25 53.717L263.481 1.90674ZM376.016 1.90674H359.489L350.633 53.6046L360.614 105.302H377.14L367.247 53.6046L376.016 1.90674ZM305.821 1.9069L324.694 47.1991H292.842L317.101 105.415H333.709L314.78 60.1249L346.815 60.1235L345.557 57.4157L322.356 1.9069H305.821Z" fill="#1F1F1F"/>
<path fill-rule="evenodd" clip-rule="evenodd" d="M1128.67 1.91434H1105.43V14.7123H1128.67V105.196H1145.85V14.7123H1168.97V1.91434H1145.85H1128.67ZM1199.17 32.2252V1.91434H1182V105.196H1199.17C1225.67 105.084 1241.61 91.2753 1241.61 68.7105C1241.61 46.0335 1225.44 32.2252 1199.17 32.2252ZM1199.17 92.9593V44.6864C1210.96 44.6864 1224.32 51.5344 1224.32 68.8229C1224.32 85.7745 1210.85 92.7348 1199.17 92.9593ZM1067.94 12.9161C1076.13 12.9161 1082.98 24.1423 1084.78 43.227H1102.29C1099.37 16.1717 1085.11 0.118164 1067.94 0.118164C1048.63 0.118164 1033.02 20.3254 1033.02 53.5551C1033.02 86.8971 1048.63 106.992 1067.94 106.992C1085.11 106.992 1099.37 90.9385 1102.29 63.8833H1084.78C1082.98 83.0802 1076.13 94.3064 1067.94 94.3064C1058.39 94.3064 1050.65 78.9264 1050.65 53.5551C1050.65 28.1838 1058.39 12.9161 1067.94 12.9161Z" fill="#1F1F1F"/>
<defs>
<linearGradient id="paint0_linear_45_756" x1="1015.84" y1="48.2405" x2="652.599" y2="48.2405" gradientUnits="userSpaceOnUse">
<stop stop-color="#FFC452"/>
<stop offset="0.15" stop-color="#F8A29A"/>
<stop offset="0.29" stop-color="#FF7DE3"/>
<stop offset="0.385" stop-color="#F696E1"/>
<stop offset="1" stop-color="#836BE2"/>
</linearGradient>
</defs>
</svg>
