<svg width="509" height="782" viewBox="0 0 509 782" fill="none" xmlns="http://www.w3.org/2000/svg">
<path d="M-9.15527e-05 0H73.1879L117.343 229.2L73.3962 458.4H0.208191L44.0212 229.449L-9.15527e-05 0Z" fill="#1F1F1F"/>
<path d="M508.75 0H435.562L391.153 228.951L435.353 457.903H508.541L464.728 228.951L508.75 0Z" fill="#1F1F1F"/>
<path d="M276.299 200.584L192.714 0.000976562H265.944L368.69 245.83L374.264 257.822L232.391 257.828C264.43 334.484 348.913 432.438 408.504 490.034C444.455 524.782 474.882 555.865 488.084 587.213C518.157 658.624 484.645 740.893 413.234 770.966C341.823 801.039 259.554 767.528 229.481 696.117C218.927 671.054 215.144 644.787 214.293 617.706C213.81 602.34 213.934 568.266 214.293 548.486C216.06 451.028 197.953 351.118 170.186 285.161C170.18 285.147 170.187 285.13 170.201 285.124L170.212 285.121L170.222 285.117C170.222 285.117 170.227 285.112 170.224 285.105L170.21 285.071L170.207 285.065L170.193 285.031C158.318 256.992 146.953 228.701 135.236 200.584H276.299Z" fill="url(#paint0_linear_2212_2)"/>
<defs>
<linearGradient id="paint0_linear_2212_2" x1="417.594" y1="768.534" x2="260.222" y2="-35.8046" gradientUnits="userSpaceOnUse">
<stop stop-color="#FFC452"/>
<stop offset="0.15" stop-color="#F8A29A"/>
<stop offset="0.29" stop-color="#FF7DE3"/>
<stop offset="0.385" stop-color="#F696E1"/>
<stop offset="1" stop-color="white"/>
</linearGradient>
</defs>
</svg>
