<svg width="438" height="128" viewBox="0 0 438 128" fill="none" xmlns="http://www.w3.org/2000/svg">
<path d="M0 0H214H438V2C429.716 2.00026 423 8.71589 423 17L423 32V96L423 111C423 119.284 429.716 126 438 126V128H214H0V126C8.28427 126 15 119.284 15 111C15 110.959 14.9998 110.918 14.9995 110.878V96V32V17.1223C14.9998 17.0816 15 17.0408 15 17C15 8.71573 8.28427 2 0 2V0Z" fill="url(#paint0_linear_2388_45)"/>
<defs>
<linearGradient id="paint0_linear_2388_45" x1="219" y1="0" x2="219" y2="128" gradientUnits="userSpaceOnUse">
<stop stop-color="#FF96E8"/>
<stop offset="1" stop-color="#E1D8FF"/>
</linearGradient>
</defs>
</svg>
