<svg width="183" height="46" viewBox="0 0 183 46" fill="none" xmlns="http://www.w3.org/2000/svg">
<path fill-rule="evenodd" clip-rule="evenodd" d="M149.874 2.39269C142.079 6.32581 134.462 12.2368 125.731 12.2368C117.001 12.2368 109.383 6.32581 101.589 2.39269C98.5548 0.861577 95.1305 0 91.5068 0C87.8722 0 84.4384 0.866706 81.3975 2.40636C73.625 6.34161 66.0243 12.2368 57.3124 12.2368C48.6423 12.2368 41.0652 6.40417 33.3278 2.49231C30.2651 0.943889 26.8041 0.0718195 23.1399 0.0718195C10.6264 0.0718195 0.4823 10.2425 0.4823 22.7886C0.4823 35.3072 10.5818 45.4606 23.0573 45.5053C23.0573 45.5053 23.0574 45.5053 23.0574 45.5054C23.0574 45.5054 23.0574 45.5055 23.0574 45.5055L160.337 45.5055C160.338 45.5055 160.339 45.5047 160.339 45.5039C160.339 45.503 160.339 45.5023 160.34 45.5022C172.623 45.2955 182.518 35.1894 182.518 22.7527C182.518 10.1867 172.417 0 159.956 0C156.332 0 152.908 0.861579 149.874 2.39269Z" fill="#E1D8FF"/>
</svg>
