<svg width="220" height="220" viewBox="0 0 221 221" fill="none" xmlns="http://www.w3.org/2000/svg">
<path d="M130.256 106.485C126.346 108.9 126.613 114.361 130.692 116.477C140.18 121.398 151.073 124.812 161.967 128.225C179.421 133.695 196.875 139.164 208.548 150.837C224.484 166.773 224.484 192.611 208.548 208.548C192.611 224.484 166.773 224.484 150.837 208.548C139.536 197.247 134.066 180.708 128.596 164.17C124.847 152.834 121.097 141.498 115.471 131.849C113.189 127.937 107.811 127.937 105.529 131.849C99.9026 141.498 96.1533 152.834 92.404 164.17C86.934 180.708 81.4639 197.247 70.163 208.548C54.2267 224.484 28.3887 224.484 12.4523 208.548C-3.4841 192.611 -3.48409 166.773 12.4523 150.837C24.1251 139.164 41.5791 133.695 59.0332 128.226C69.9267 124.812 80.8203 121.398 90.3083 116.477C94.3873 114.361 94.6536 108.9 90.7441 106.485C80.7619 100.319 68.796 96.3616 56.8301 92.404C40.2916 86.9339 23.7532 81.4639 12.4523 70.163C-3.48409 54.2266 -3.4841 28.3887 12.4523 12.4523C28.3887 -3.48409 54.2267 -3.4841 70.163 12.4523C81.8359 24.1251 87.3052 41.5791 92.7745 59.0332C96.4038 70.6151 100.033 82.1971 105.475 92.0899C107.723 96.1757 113.277 96.1757 115.525 92.0899C120.967 82.1972 124.596 70.6152 128.225 59.0332C133.695 41.5791 139.164 24.1251 150.837 12.4523C166.773 -3.48409 192.611 -3.48407 208.548 12.4523C224.484 28.3887 224.484 54.2267 208.548 70.163C197.247 81.4639 180.708 86.9339 164.17 92.404C152.204 96.3616 140.238 100.319 130.256 106.485Z" fill="white"/>
</svg>
