<svg width="154" height="151" viewBox="0 0 154 151" fill="none" xmlns="http://www.w3.org/2000/svg">
<path d="M9.53094 9.56634V8.02944H13.2942C13.8305 8.02944 14.2901 7.93846 14.6731 7.75653C15.0657 7.56501 15.3674 7.30168 15.578 6.96653C15.7887 6.6218 15.894 6.21962 15.894 5.75998C15.894 5.30034 15.7887 4.90295 15.578 4.5678C15.3674 4.23265 15.0657 3.9741 14.6731 3.79216C14.2901 3.60065 13.8305 3.50489 13.2942 3.50489H9.54531V1.96798H13.3804C14.2805 1.96798 15.0609 2.13077 15.7217 2.45634C16.3824 2.77234 16.8947 3.21283 17.2586 3.7778C17.632 4.34277 17.8188 5.0035 17.8188 5.75998C17.8188 6.51647 17.632 7.18198 17.2586 7.75653C16.8947 8.3215 16.3824 8.76677 15.7217 9.09234C15.0609 9.40834 14.2805 9.56634 13.3804 9.56634H9.53094ZM5.36549 9.56634C4.47494 9.56634 3.69452 9.40834 3.02421 9.09234C2.36349 8.76677 1.8464 8.3215 1.47294 7.75653C1.10906 7.18198 0.927124 6.51647 0.927124 5.75998C0.927124 5.0035 1.10906 4.34277 1.47294 3.7778C1.8464 3.21283 2.36349 2.77234 3.02421 2.45634C3.69452 2.13077 4.47494 1.96798 5.36549 1.96798H9.18621V3.50489H5.43731C4.91064 3.50489 4.451 3.60065 4.0584 3.79216C3.67537 3.9741 3.37852 4.23265 3.16785 4.5678C2.95718 4.90295 2.85185 5.30034 2.85185 5.75998C2.85185 6.21962 2.95718 6.6218 3.16785 6.96653C3.37852 7.30168 3.67537 7.56501 4.0584 7.75653C4.451 7.93846 4.91064 8.02944 5.43731 8.02944H9.20058V9.56634H5.36549ZM8.42494 11.6922V0.402344H10.3209V11.6922H8.42494Z" fill="white"/>
<path d="M8.8746 140.685H10.7706V150.581H8.8746V140.685ZM4.42188 139.809H15.2233V141.475H4.42188V139.809Z" fill="white"/>
<path d="M147.623 11.6349C146.398 11.6349 145.32 11.4003 144.391 10.9311C143.463 10.4618 142.74 9.81069 142.223 8.9776C141.705 8.13493 141.447 7.1582 141.447 6.04742C141.447 4.93663 141.705 3.96469 142.223 3.1316C142.74 2.28893 143.463 1.63299 144.391 1.16378C145.32 0.694567 146.398 0.459961 147.623 0.459961C148.849 0.459961 149.926 0.694567 150.855 1.16378C151.784 1.63299 152.507 2.28893 153.024 3.1316C153.541 3.96469 153.8 4.93663 153.8 6.04742C153.8 7.1582 153.541 8.13493 153.024 8.9776C152.507 9.81069 151.784 10.4618 150.855 10.9311C149.926 11.4003 148.849 11.6349 147.623 11.6349ZM147.623 9.93996C148.495 9.93996 149.246 9.78196 149.878 9.46596C150.51 9.14996 150.999 8.6999 151.343 8.11578C151.698 7.53166 151.875 6.8422 151.875 6.04742C151.875 5.25263 151.698 4.56317 151.343 3.97905C150.999 3.39493 150.51 2.94487 149.878 2.62887C149.246 2.31287 148.495 2.15487 147.623 2.15487C146.761 2.15487 146.01 2.31287 145.368 2.62887C144.736 2.94487 144.243 3.39493 143.889 3.97905C143.544 4.56317 143.372 5.25263 143.372 6.04742C143.372 6.8422 143.544 7.53166 143.889 8.11578C144.243 8.6999 144.736 9.14996 145.368 9.46596C146.01 9.78196 146.761 9.93996 147.623 9.93996Z" fill="white"/>
<path d="M147.623 150.782C146.398 150.782 145.32 150.548 144.391 150.079C143.463 149.609 142.74 148.958 142.223 148.125C141.705 147.282 141.447 146.306 141.447 145.195C141.447 144.084 141.705 143.112 142.223 142.279C142.74 141.436 143.463 140.78 144.391 140.311C145.32 139.842 146.398 139.607 147.623 139.607C148.849 139.607 149.926 139.842 150.855 140.311C151.784 140.78 152.507 141.436 153.024 142.279C153.541 143.112 153.8 144.084 153.8 145.195C153.8 146.306 153.541 147.282 153.024 148.125C152.507 148.958 151.784 149.609 150.855 150.079C149.926 150.548 148.849 150.782 147.623 150.782ZM147.623 149.087C148.495 149.087 149.246 148.929 149.878 148.613C150.51 148.297 150.999 147.847 151.343 147.263C151.698 146.679 151.875 145.99 151.875 145.195C151.875 144.4 151.698 143.711 151.343 143.127C150.999 142.542 150.51 142.092 149.878 141.776C149.246 141.46 148.495 141.302 147.623 141.302C146.761 141.302 146.01 141.46 145.368 141.776C144.736 142.092 144.243 142.542 143.889 143.127C143.544 143.711 143.372 144.4 143.372 145.195C143.372 145.99 143.544 146.679 143.889 147.263C144.243 147.847 144.736 148.297 145.368 148.613C146.01 148.929 146.761 149.087 147.623 149.087Z" fill="white"/>
</svg>
