<svg width="200" height="43" viewBox="0 0 200 43" fill="none" xmlns="http://www.w3.org/2000/svg">
<path fill-rule="evenodd" clip-rule="evenodd" d="M198.942 7.67559H187.895L186.721 17.3136H196.372L195.442 24.9776H185.791L184.651 34.3834H195.698L194.767 42.0474H183.721H174.884L176.954 24.9776L177.663 19.1716L179.988 0.0116093H188.826H199.872L198.942 7.67559ZM164.756 7.67559L163.581 17.3136H173.233L172.302 24.9776H162.651L161.512 34.3834H172.558L171.628 42.0474H160.581H151.744L155.919 7.67559L156.849 0.0116093H165.686H176.733L175.802 7.67559H164.756ZM138.698 42.0474L140.767 24.9776H134.407L132.337 42.0474H123.593L125.663 24.9776L126.372 19.1716L128.698 0.0116093H137.442L135.337 17.3136H141.698L143.802 0.0116093H152.547L147.442 42.0474H138.698ZM114.826 7.69881C112.221 7.69881 110.884 8.84842 110.64 10.927C110.419 12.8198 111.186 14.4687 114.314 16.733C116.686 18.4516 117.163 18.9045 119.012 20.565C121.372 22.7016 123.186 26.4291 122.767 30.9927C122.616 32.6416 121.988 36.4272 119.744 38.796C117.953 40.6888 115.605 42.0474 109.744 42.0474H100.093L100.988 34.337H109.593C111.512 34.337 112.709 33.8028 113.442 33.0132C114.198 32.2003 114.465 31.1204 114.535 30.0753C114.651 28.438 113.826 26.3362 111.209 24.3854C106.558 20.9134 104.767 19.1948 103.535 16.4892C102.012 13.1681 102.779 9.45225 103.291 7.60592C104.64 2.77529 108.547 0 113.698 0H124.733L123.733 7.6872H114.826V7.69881ZM89.8721 7.67559L88.6977 17.3136H98.3488L97.4186 24.9776H87.7674L86.6279 34.3834H97.6744L96.7442 42.0474H85.6977H76.8605L77.7907 34.3834L78.9302 24.9776L79.6395 19.16L81.0349 7.67559L81.9651 0.0116093H90.8023H101.849L100.919 7.67559H89.8721ZM66.7326 7.67559L65.5581 17.3136H75.2093L74.2791 24.9776H64.6279L63.4884 34.3834H74.5349L73.6047 42.0474H62.5581H53.7209L58.8256 0.0116093H67.6628H78.7093L77.7791 7.67559H66.7326ZM40.6744 42.0474L42.7442 24.9776H36.3837L34.314 42.0474H25.5698L27.6395 24.9776L28.3488 19.1716L30.6744 0.0116093H39.4186L37.314 17.3136H43.6744L45.7791 0.0116093H54.5233L49.4186 42.0474H40.6744ZM27.0349 0.766396L12.5349 34.395H23.2558L22.3256 42.059H17.5581H0L0.0232643 42.0126L14.8256 7.6872H4.18605L5.11628 0H14.0581V0.0116093H27.407L27.0349 0.766396Z" fill="#111111"/>
</svg>
