<svg width="100" height="100" viewBox="0 0 100 100" fill="none" xmlns="http://www.w3.org/2000/svg">
<circle cx="50" cy="50" r="50" transform="matrix(-1 0 0 1 100 0)" fill="#D9D9D9"/>
<circle cx="50" cy="50" r="50" transform="matrix(-1 0 0 1 100 0)" fill="url(#paint0_linear_2068_522)"/>
<path d="M58.8935 58.7349C57.3504 66.4921 54.0092 70.9349 50.1278 70.9349C44.79 70.9349 40.4569 62.5063 40.4569 48.5C40.4569 48.3526 40.4574 48.2058 40.4584 48.0596H30.5993C30.5982 48.2059 30.5977 48.3527 30.5977 48.5C30.5977 66.8446 39.3266 78 50.1278 78C59.7359 78 67.7112 69.1376 69.3439 54.2017L59.5005 53C59.5005 54.2017 59.1729 57.3303 58.8935 58.7349Z" fill="#1F1F1F"/>
<path d="M49.7666 46.1388C39.689 46.1388 29.6664 36.5337 19.9155 36.5337C13.0402 36.5337 7.46661 42.1003 7.46661 48.9671C7.46661 55.8338 13.0402 61.4004 19.9155 61.4004C29.9873 61.4004 39.6948 51.8057 49.7666 51.8057C59.8385 51.8057 69.5459 61.4004 79.6178 61.4004C86.4931 61.4004 92.0666 55.8338 92.0666 48.9671C92.0666 42.1003 86.4931 36.5337 79.6178 36.5337C68.8309 36.5337 59.8443 46.1388 49.7666 46.1388Z" fill="white"/>
<path d="M50.1278 26.0651C54.6416 26.0651 58.4248 32.0737 59.4992 42.3159C59.531 42.6198 59.5627 43.056 59.5849 43.3611L59.5849 43.3612C59.596 43.5138 59.6047 43.6336 59.6099 43.6875H69.4146C69.3911 43.3516 69.3079 42.476 69.2887 42.3159C67.5385 27.6718 59.632 19 50.1278 19C39.3266 19 30.5977 30.1554 30.5977 48.5C30.5977 55.4583 31.8451 61.3715 33.9804 66.0354L42.1454 61.8945C41.0803 58.3314 40.4569 53.8124 40.4569 48.5C40.4569 34.4937 44.79 26.0651 50.1278 26.0651Z" fill="#1F1F1F"/>
<defs>
<linearGradient id="paint0_linear_2068_522" x1="50" y1="17.2464" x2="50" y2="77.5362" gradientUnits="userSpaceOnUse">
<stop stop-color="#FF96E8"/>
<stop offset="1" stop-color="#BEAAFF"/>
</linearGradient>
</defs>
</svg>
