<svg width="313" height="144" viewBox="0 0 313 144" fill="none" xmlns="http://www.w3.org/2000/svg">
<path d="M194.491 28.681C201.635 24.5562 204.083 15.4207 199.958 8.2763C195.833 1.13192 186.698 -1.31593 179.553 2.80889C174.32 5.83019 170.733 11.4833 167.146 17.1364C163.558 22.7895 159.971 28.4425 154.738 31.4638C147.489 35.2462 141.932 35.0454 136.126 35.0454C133.706 35.0454 131.963 35.0454 129.648 35.0454C128.286 35.0454 127.088 35.0454 125.735 35.0454L125.732 32.359L125.722 19.1239C125.72 17.5815 124.033 16.6336 122.715 17.435L44.4406 65.9411C44.4406 65.9411 44.4402 66.3613 44.4409 67.0528L44.4696 94.3466C44.4705 95.2093 44.4423 96.2463 44.4423 96.2463C44.4423 96.2463 45.6577 96.2568 46.2536 96.3467C53.5485 97.4477 59.2748 103.84 59.2748 111.431C59.2748 119.018 53.6945 125.312 46.4286 126.416C45.3661 126.578 44.5034 127.442 44.5034 128.517V141.955C44.5034 143.5 46.1953 144.449 47.5136 143.643L124.258 95.829C124.258 95.829 125.136 93.274 125.78 91.8779L122.614 82.694L121.575 80.8691L126.727 79.7796L125.736 66.4791C128.02 66.3621 130.335 65.7212 132.452 64.4991C137.518 61.5741 141.019 56.245 144.52 50.9158C148.021 45.5866 151.433 40.4176 157.512 36.9077C163.847 33.2501 169.43 32.7595 176.693 32.3404C183.059 31.9732 189.424 31.606 194.491 28.681Z" fill="url(#paint0_linear_118_554)"/>
<path d="M45.5558 96.1505C49.8848 95.458 53.3539 91.0658 54.117 84.0217H49.1508C48.6435 89.3795 46.7471 92.5588 44.4677 92.6479L44.4694 94.3472C44.4702 95.117 44.9136 95.7786 45.5558 96.1505Z" fill="#1F1F1F"/>
<path d="M44.4434 69.5688C46.7337 69.6362 48.6417 72.8191 49.1508 78.1641H54.117C53.3085 70.7322 49.4627 66.2162 44.7749 65.9512C44.5601 66.2723 44.4404 66.6546 44.4408 67.0534L44.4434 69.5688Z" fill="#1F1F1F"/>
<path fill-rule="evenodd" clip-rule="evenodd" d="M101.837 66.4806H101.678H96.9667H89.3582H84.4875V70.1098C84.4875 74.8532 84.4875 83.0347 84.4875 87.5871C84.4875 88.4466 84.4556 89.6245 84.2646 90.1339C83.6279 91.7893 82.1635 92.1076 82.1635 92.1076L79.6168 99.366H84.4875L85.7609 95.7368H99.5135V99.366H104.384V92.1076H101.837V66.4806ZM96.9349 92.1395H88.1803C88.2758 91.9803 88.3713 91.7893 88.4668 91.5983C89.0717 90.4204 89.2945 88.7968 89.2945 86.8549C89.2945 82.398 89.2945 74.6622 89.2945 70.1098H96.903V92.1395H96.9349ZM44.4393 92.6488V96.2462C49.2782 96.1825 53.2894 91.662 54.1171 84.0216H49.1509C48.6415 89.4017 46.7314 92.5852 44.4393 92.6488ZM44.4393 65.9395V69.5686C46.7314 69.6323 48.6415 72.8158 49.1509 78.164H54.1171C53.3077 70.7241 49.4544 66.2064 44.7597 65.9503C44.6534 65.9445 44.5465 65.9409 44.4393 65.9395ZM72.2629 66.4806L63.9859 86.25V66.4806H59.1152V95.7686H63.9859L72.2629 75.9992V95.7686H77.1336V66.4806H72.2629ZM190.02 66.4806H189.861H185.149H177.541H172.67V70.1098C172.67 74.8532 172.67 83.0347 172.67 87.5871C172.67 88.4466 172.638 89.6245 172.447 90.1339C171.81 91.7893 170.346 92.1076 170.346 92.1076L167.799 99.366H172.67L173.943 95.7368H187.696V99.366H192.567V92.1076H190.02V66.4806ZM185.149 92.1395H176.394C176.49 91.9803 176.585 91.7893 176.681 91.5983C177.286 90.4204 177.509 88.7968 177.509 86.8549C177.509 82.398 177.509 74.6622 177.509 70.1098H185.117V92.1395H185.149ZM280.976 66.4806H274.386V70.1098H280.976V95.7686H285.847V70.1098H292.405V66.4806H285.847H280.976ZM300.968 75.076V66.4806H296.098V95.7686H300.968C308.481 95.7368 313.002 91.8211 313.002 85.4223C313.002 78.9917 308.418 75.076 300.968 75.076ZM300.968 92.2987V78.6097C304.311 78.6097 308.099 80.5516 308.099 85.4542C308.099 90.2612 304.279 92.235 300.968 92.2987ZM160.127 66.4806L151.85 86.25V66.4806H146.979V95.7686H151.85L160.127 75.9992V95.7686H164.998V66.4806H160.127ZM216.411 66.4806H211.413L205.873 79.3101H202.754V66.4806H197.883V95.7686H202.754V82.9392H205.969L212.336 95.7686H217.621L210.267 81.1246L216.411 66.4806ZM263.753 69.6005C266.077 69.6005 268.019 72.7839 268.529 78.1958H273.495C272.667 70.5237 268.624 65.9713 263.753 65.9713C258.278 65.9713 253.853 71.7015 253.853 81.1246C253.853 90.5796 258.278 96.278 263.753 96.278C268.624 96.278 272.667 91.7256 273.495 84.0534H268.529C268.019 89.4972 266.077 92.6807 263.753 92.6807C261.048 92.6807 258.851 88.3193 258.851 81.1246C258.851 73.93 261.048 69.6005 263.753 69.6005Z" fill="#1F1F1F"/>
<path fill-rule="evenodd" clip-rule="evenodd" d="M19.0833 82.8857L12.6043 88.151L6.12527 82.8857H0.755676L9.94167 90.3267L0.755676 97.7242H6.12527L12.6043 92.5025L19.0833 97.7242H24.4529L15.3113 90.3267L24.4973 82.8857H19.0833Z" fill="white"/>
<path fill-rule="evenodd" clip-rule="evenodd" d="M63.625 17.5962L57.1421 22.8434L50.6591 17.5962H45.2713L55.2147 25.6391V34.4132H59.0695V25.6391L69.0129 17.5962H63.625Z" fill="white"/>
<path d="M126.407 79.3217L121.054 66.478H125.743L132.32 82.2141L132.68 82.9868L123.595 82.9872L128.963 95.8304H124.253L117.374 79.3217H126.407Z" fill="#1F1F1F"/>
<path d="M136.274 66.478H140.96L138.473 81.1382L141.279 95.7984H136.592L133.762 81.1382L136.274 66.478Z" fill="#1F1F1F"/>
<path d="M113.734 66.478H109.048L111.535 81.1701L108.729 95.8303H113.416L116.23 81.1542L113.734 66.478Z" fill="#1F1F1F"/>
<path fill-rule="evenodd" clip-rule="evenodd" d="M234.183 65.9712C225.81 65.9712 218.998 72.752 218.998 81.1245C218.998 89.4971 225.779 96.2779 234.183 96.2779C242.556 96.2779 249.368 89.4971 249.368 81.1245C249.368 72.752 242.556 65.9712 234.183 65.9712Z" fill="url(#paint1_linear_118_554)"/>
<defs>
<linearGradient id="paint0_linear_118_554" x1="203.453" y1="65.2375" x2="107.522" y2="65.2375" gradientUnits="userSpaceOnUse">
<stop stop-color="#FFC452"/>
<stop offset="0.15" stop-color="#F8A29A"/>
<stop offset="0.29" stop-color="#FF7DE3"/>
<stop offset="0.385" stop-color="#F696E1"/>
<stop offset="0.802608" stop-color="white"/>
</linearGradient>
<linearGradient id="paint1_linear_118_554" x1="247.414" y1="79.6141" x2="182.044" y2="79.6141" gradientUnits="userSpaceOnUse">
<stop stop-color="#FFC452"/>
<stop offset="0.15" stop-color="#F8A29A"/>
<stop offset="0.29" stop-color="#FF7DE3"/>
<stop offset="0.385" stop-color="#F696E1"/>
<stop offset="0.791958" stop-color="white"/>
</linearGradient>
</defs>
</svg>
