<svg width="477" height="284" viewBox="0 0 477 284" fill="none" xmlns="http://www.w3.org/2000/svg">
<path d="M74.0001 269C74.0001 268.957 73.9999 268.913 73.9995 268.87L73.9993 149H230V275C230 279.971 234.029 284 239 284H59.0001C67.2843 284 74.0001 277.284 74.0001 269Z" fill="#E1D8FF"/>
<path d="M248 275V149H404V269C404 277.284 410.716 284 419 284H239C243.97 284 248 279.97 248 275Z" fill="#E1D8FF"/>
<path fill-rule="evenodd" clip-rule="evenodd" d="M73.9999 134C73.9999 134.043 73.9997 134.086 73.9993 134.129V149H230L229.999 128C229.999 123.029 234.029 119 238.999 119H58.9999C67.2841 119 73.9999 125.715 73.9999 134Z" fill="#E1D8FF"/>
<path fill-rule="evenodd" clip-rule="evenodd" d="M247.999 128L248 149H404L403.999 134C403.999 125.715 410.716 119 419 119H238.999C243.97 119 247.999 123.029 247.999 128Z" fill="#E1D8FF"/>
<path fill-rule="evenodd" clip-rule="evenodd" d="M391.634 6.25701C371.251 16.5424 351.331 32 328.5 32C305.669 32 285.749 16.5424 265.366 6.25701C257.431 2.25307 248.476 0 239 0C229.495 0 220.516 2.26649 212.563 6.29277C192.238 16.5837 172.362 32 149.579 32C126.906 32 107.092 16.7473 86.8578 6.51758C78.8487 2.46837 69.7979 0.187868 60.2158 0.187868C27.4923 0.187868 0.9646 26.7849 0.9646 59.5939C0.9646 92.3308 27.3756 118.883 59.9998 119L238.999 119L418.996 119C418.998 119 419 118.998 419 118.996C419 118.993 419.002 118.992 419.004 118.992C451.126 118.451 477 92.0227 477 59.5C477 26.6391 450.585 0 418 0C408.524 0 399.569 2.25307 391.634 6.25701Z" fill="#E1D8FF"/>
</svg>
