<svg width="1880" height="697" viewBox="0 0 1880 697" fill="none" xmlns="http://www.w3.org/2000/svg">
<path fill-rule="evenodd" clip-rule="evenodd" d="M387.676 2C419.901 2 436.014 2 446.963 10.7456C449.288 12.6022 451.398 14.7123 453.254 17.0368C462 27.9865 462 44.099 462 76.3242C462 120.189 462 142.122 450.864 153.729C448.303 156.398 446.164 158.127 443.017 160.07C429.331 168.522 405.348 163.373 357.382 153.076C330.471 147.299 303.569 144 276.641 144C123.857 144 0 267.793 0 420.5C0 573.207 123.857 697 276.641 697C728.429 697 1162.02 697 1603.36 697C1756.14 697 1880 573.207 1880 420.5C1880 267.793 1756.14 144 1603.36 144C1575.06 144 1547.43 146.977 1520.31 152.228C1473.72 161.252 1450.42 165.764 1437.21 157.724C1433.62 155.54 1431.23 153.572 1428.41 150.464C1418 139.02 1418 117.848 1418 75.5037C1418 44.066 1418 28.3472 1426.35 17.5435C1428.43 14.8483 1430.85 12.43 1433.54 10.3475C1444.35 2 1460.07 2 1491.5 2V0H940H387.676V2Z" fill="url(#paint0_linear_2067_462)"/>
<defs>
<linearGradient id="paint0_linear_2067_462" x1="940" y1="120.207" x2="940" y2="540.427" gradientUnits="userSpaceOnUse">
<stop stop-color="#FF96E8"/>
<stop offset="1" stop-color="#BEAAFF"/>
</linearGradient>
</defs>
</svg>
