<svg width="1880" height="713" viewBox="0 0 1880 713" fill="none" xmlns="http://www.w3.org/2000/svg">
<path fill-rule="evenodd" clip-rule="evenodd" d="M387.676 2C419.901 2 436.014 2 446.963 10.7456C449.288 12.6022 451.398 14.7123 453.254 17.0368C462 27.9865 462 60.099 462 92.3242C462 136.189 462 158.122 450.864 169.729C448.303 172.398 446.164 174.127 443.017 176.07C429.331 184.522 405.348 179.373 357.382 169.076C330.471 163.299 303.569 160 276.641 160C123.857 160 0 283.793 0 436.5C0 589.207 123.857 713 276.641 713C388.551 713 498.436 659.657 608.321 606.314C718.206 552.971 828.091 499.628 940 499.628C1051.91 499.628 1161.79 552.971 1271.68 606.314C1381.56 659.657 1491.45 713 1603.36 713C1756.14 713 1880 589.207 1880 436.5C1880 283.793 1756.14 160 1603.36 160C1575.06 160 1547.43 162.977 1520.31 168.228C1473.72 177.252 1450.42 181.764 1437.21 173.724C1433.62 171.54 1431.23 169.572 1428.41 166.464C1418 155.02 1418 133.848 1418 91.5037C1418 60.066 1418 28.3472 1426.35 17.5435C1428.43 14.8483 1430.85 12.43 1433.54 10.3475C1444.35 2 1460.07 2 1491.5 2V0H940H387.676V2ZM940 2C935.029 2 931 6.02944 931 11V364.497C931 369.502 934.995 373.604 940 373.604C945.005 373.604 949 369.501 949 364.496V11C949 6.02944 944.971 2 940 2Z" fill="url(#paint0_linear_2067_446)"/>
<defs>
<linearGradient id="paint0_linear_2067_446" x1="940" y1="136.207" x2="940" y2="556.428" gradientUnits="userSpaceOnUse">
<stop stop-color="#FF96E8"/>
<stop offset="1" stop-color="#BEAAFF"/>
</linearGradient>
</defs>
</svg>
