<svg width="477" height="176" viewBox="0 0 477 176" fill="none" xmlns="http://www.w3.org/2000/svg">
<path fill-rule="evenodd" clip-rule="evenodd" d="M73.0353 158.937C73.0354 158.958 73.0355 158.979 73.0355 159C73.0355 167.284 66.3197 174 58.0355 174L58.0353 176H238.035H418.04L418.035 174C409.751 174 403.035 167.284 403.035 159L403.035 134C403.035 125.716 409.75 119.001 418.033 119L418.035 118.996C418.035 118.993 418.037 118.992 418.04 118.992C450.161 118.451 476.035 92.0227 476.035 59.5C476.035 26.6391 449.62 0 417.035 0C407.559 0 398.604 2.25307 390.67 6.25701C385.756 8.73633 380.87 11.5162 375.963 14.3076C360.514 23.0964 344.863 32 327.535 32C310.208 32 294.557 23.0964 279.108 14.3076C274.201 11.5162 269.315 8.73633 264.401 6.25701C256.466 2.25307 247.512 0 238.035 0C228.531 0 219.551 2.26649 211.599 6.29277C206.728 8.75917 201.882 11.52 197.016 14.2924C181.579 23.0878 165.937 32 148.615 32C131.33 32 115.707 23.1359 100.293 14.3903C95.4873 11.6638 90.7021 8.94884 85.8932 6.51758C77.8841 2.46837 68.8333 0.187868 59.2512 0.187868C26.5277 0.187868 0 26.7849 0 59.5939C0 92.3308 25.4111 118.883 58.0353 119C66.3195 119 73.0353 125.715 73.0353 134C73.0353 134.035 73.0352 134.07 73.0349 134.105L73.0347 134.129L73.0349 158.87C73.0351 158.893 73.0352 158.915 73.0353 158.937ZM229.035 165C229.035 169.971 233.064 174 238.035 174C243.005 174 247.035 169.971 247.035 165L247.035 128C247.035 123.03 243.005 119 238.035 119C233.064 119 229.035 123.029 229.035 128L229.035 165Z" fill="#E1D8FF"/>
</svg>
