<svg width="477" height="174" viewBox="0 0 477 174" fill="none" xmlns="http://www.w3.org/2000/svg">
<path d="M73.0355 159C73.0355 158.957 73.0353 158.913 73.0349 158.87L73.0347 149H229.035V165C229.035 169.971 233.064 174 238.035 174H58.0355C66.3197 174 73.0355 167.284 73.0355 159Z" fill="#E1D8FF"/>
<path d="M247.035 165V149H403.035V159C403.035 167.284 409.751 174 418.035 174H238.035C243.005 174 247.035 169.97 247.035 165Z" fill="#E1D8FF"/>
<path fill-rule="evenodd" clip-rule="evenodd" d="M73.0353 134C73.0353 134.043 73.0351 134.086 73.0347 134.129V149H229.035L229.035 128C229.035 123.029 233.064 119 238.035 119H58.0353C66.3195 119 73.0353 125.715 73.0353 134Z" fill="#E1D8FF"/>
<path fill-rule="evenodd" clip-rule="evenodd" d="M247.035 128L247.035 149H403.035L403.035 134C403.035 125.715 409.751 119 418.035 119H238.035C243.005 119 247.035 123.029 247.035 128Z" fill="#E1D8FF"/>
<path fill-rule="evenodd" clip-rule="evenodd" d="M390.67 6.25701C370.287 16.5424 350.366 32 327.535 32C304.704 32 284.784 16.5424 264.401 6.25701C256.466 2.25307 247.512 0 238.035 0C228.531 0 219.551 2.26649 211.599 6.29277C191.273 16.5837 171.397 32 148.615 32C125.942 32 106.127 16.7473 85.8932 6.51758C77.8841 2.46837 68.8333 0.187868 59.2512 0.187868C26.5277 0.187868 0 26.7849 0 59.5939C0 92.3308 26.411 118.883 59.0352 119L238.035 119L418.031 119C418.034 119 418.035 118.998 418.035 118.996C418.035 118.993 418.037 118.992 418.04 118.992C450.161 118.451 476.035 92.0227 476.035 59.5C476.035 26.6391 449.62 0 417.035 0C407.559 0 398.604 2.25307 390.67 6.25701Z" fill="#E1D8FF"/>
</svg>
