<svg width="1880" height="604" viewBox="0 0 1880 604" fill="none" xmlns="http://www.w3.org/2000/svg">
<path fill-rule="evenodd" clip-rule="evenodd" d="M940 0H446V2C454.213 2 461.019 8.86574 461 17.0654L461 17.1223C461 17.1223 461 21.5991 461 31.7996C461 42 457.361 53.77 452.012 59.8412C448.693 63.6082 445.73 65.9869 441.335 68.4138C428.109 75.7167 405.504 70.7148 360.295 60.7108C332.411 54.5409 304.54 51 276.641 51C123.857 51 0 174.793 0 327.5C0 480.207 123.857 604 276.641 604C388.551 604 498.436 550.657 608.321 497.314C718.206 443.971 828.091 390.628 940 390.628C1051.91 390.628 1161.79 443.971 1271.68 497.314C1381.56 550.657 1491.45 604 1603.36 604C1756.14 604 1880 480.207 1880 327.5C1880 174.793 1756.14 51 1603.36 51C1574.05 51 1545.45 54.1936 1517.41 59.7998C1473.55 68.5667 1451.63 72.9501 1438.89 66.0237C1434.03 63.3832 1430.83 60.7559 1427.29 56.5125C1422.42 50.6769 1419 42 1419 30.1116L1419 17C1419 8.71589 1425.72 2.00026 1434 2V0H940ZM949 11C949 6.02944 944.971 2 940 2C935.03 2 931 6.02944 931 11V32V255.497C931 260.502 934.995 264.604 940 264.604C945.005 264.604 949 260.501 949 255.496V32V11Z" fill="url(#paint0_linear_2067_418)"/>
<defs>
<linearGradient id="paint0_linear_2067_418" x1="940" y1="104.168" x2="940" y2="468.319" gradientUnits="userSpaceOnUse">
<stop stop-color="#FF96E8"/>
<stop offset="1" stop-color="#BEAAFF"/>
</linearGradient>
</defs>
</svg>
