<svg width="122" height="122" viewBox="0 0 122 122" fill="none" xmlns="http://www.w3.org/2000/svg">
<path d="M72 100C99.6143 100 122 77.6142 122 50C122 22.3858 99.6143 0 72 0C44.3858 0 22 22.3858 22 50C22 55.148 22.778 60.1143 24.2229 64.7877C25.9558 70.3928 25.2167 76.7366 21.0682 80.8851C16.0578 85.8955 8.00719 86.0463 2.60608 81.4596C-6.4057 100.89 21.9999 129.5 41.0868 120.039C36.4411 114.54 36.6016 106.364 41.6919 101.274C45.8646 97.1009 52.2285 96.3193 57.8906 97.9816C62.3653 99.2952 67.1003 100 72 100Z" fill="#836BE2"/>
</svg>
