<svg width="59" height="15" viewBox="0 0 59 15" fill="none" xmlns="http://www.w3.org/2000/svg">
<path d="M40.5323 11.021C37.6057 11.021 35.0144 12.9515 32.3187 14.0909C31.4418 14.4615 30.4778 14.6665 29.466 14.6665C28.4482 14.6665 27.4788 14.4591 26.5979 14.0844C23.9142 12.9428 21.3326 11.021 18.4163 11.021C15.4893 11.021 12.9 12.9566 10.2076 14.1049C9.32496 14.4813 8.35342 14.6896 7.33323 14.6896C3.2832 14.6896 0 11.4064 0 7.35641C0 3.30637 3.2832 0.0231748 7.33323 0.0231748C8.52393 0.0231748 9.64835 0.306958 10.6425 0.81058C13.1391 2.07526 15.5857 3.95638 18.3844 3.95638C21.1927 3.95638 23.6459 2.06261 26.1497 0.790906C27.1456 0.285099 28.2725 0 29.466 0C30.6649 0 31.7966 0.2877 32.7958 0.797825C35.2886 2.07049 37.7334 3.95638 40.5323 3.95638C43.3313 3.95638 45.776 2.07049 48.2689 0.797825C49.2681 0.287699 50.3998 0 51.5987 0C55.6487 0 58.9319 3.2832 58.9319 7.33323C58.9319 11.3833 55.6487 14.6665 51.5987 14.6665C50.5868 14.6665 49.6229 14.4615 48.746 14.0909C46.0502 12.9515 43.459 11.021 40.5323 11.021Z" fill="white"/>
</svg>
