<svg width="542" height="170" viewBox="0 0 542 170" fill="none" xmlns="http://www.w3.org/2000/svg">
<path fill-rule="evenodd" clip-rule="evenodd" d="M76.0764 30.107C41.2593 30.107 13.0344 58.489 13.0344 93.5C13.0344 128.511 41.2593 156.893 76.0764 156.893C103.286 156.893 130.684 143.789 161.594 128.693C162.065 128.463 162.537 128.232 163.01 128.001C192.176 113.752 224.708 97.8587 258.5 97.8587C292.292 97.8587 324.824 113.752 353.99 128.001C354.463 128.232 354.935 128.463 355.406 128.693C386.315 143.789 413.714 156.893 440.924 156.893C475.741 156.893 503.966 128.511 503.966 93.5C503.966 58.489 475.741 30.107 440.924 30.107C411.506 30.107 384.005 43.2879 353.871 58.2947C352.981 58.738 352.088 59.1832 351.192 59.6299C322.975 73.6991 291.875 89.2054 258.5 89.2054C224.472 89.2054 191.257 73.0925 161.662 58.7357L160.876 58.3545C129.621 43.1939 102.292 30.107 76.0764 30.107ZM165.787 46.184C196.492 61.0793 227.453 76.0984 258.5 76.0984C288.769 76.0984 317.428 61.8219 346.574 47.3027C376.728 32.2813 407.403 17 440.924 17C482.939 17 517 51.2502 517 93.5C517 135.75 482.939 170 440.924 170C410.148 170 379.93 155.241 349.712 140.483C319.493 125.724 289.275 110.966 258.5 110.966C227.725 110.966 197.507 125.724 167.288 140.483C137.07 155.241 106.851 170 76.0764 170C34.0605 170 0 135.75 0 93.5C0 51.2502 34.0605 17 76.0764 17C105.625 17 135.583 31.5321 165.787 46.184Z" fill="white"/>
<path fill-rule="evenodd" clip-rule="evenodd" d="M542 9.2073L434.891 116L392 73.2359L401.235 64.0286L434.891 97.5854L532.765 0L542 9.2073Z" fill="url(#paint0_linear_2001_3)"/>
<defs>
<linearGradient id="paint0_linear_2001_3" x1="536.287" y1="4.89497" x2="410.985" y2="122.977" gradientUnits="userSpaceOnUse">
<stop stop-color="#FFC452"/>
<stop offset="0.15" stop-color="#F8A29A"/>
<stop offset="0.29" stop-color="#FF7DE3"/>
<stop offset="0.385" stop-color="#F696E1"/>
<stop offset="0.888065" stop-color="white"/>
</linearGradient>
</defs>
</svg>
