<svg width="517" height="153" viewBox="0 0 517 153" fill="none" xmlns="http://www.w3.org/2000/svg">
<path fill-rule="evenodd" clip-rule="evenodd" d="M76.0764 13.107C41.2593 13.107 13.0344 41.489 13.0344 76.5C13.0344 111.511 41.2593 139.893 76.0764 139.893C103.286 139.893 130.684 126.789 161.594 111.693C162.065 111.463 162.537 111.232 163.01 111.001C192.176 96.7521 224.708 80.8587 258.5 80.8587C292.292 80.8587 324.824 96.7521 353.99 111.001C354.463 111.232 354.935 111.463 355.406 111.693C386.315 126.789 413.714 139.893 440.924 139.893C475.741 139.893 503.966 111.511 503.966 76.5C503.966 41.489 475.741 13.107 440.924 13.107C411.506 13.107 384.005 26.2879 353.871 41.2947C352.981 41.738 352.088 42.1832 351.192 42.6299C322.975 56.6991 291.875 72.2054 258.5 72.2054C224.472 72.2054 191.257 56.0925 161.662 41.7357L160.876 41.3545C129.621 26.1939 102.292 13.107 76.0764 13.107ZM165.787 29.184C196.492 44.0793 227.453 59.0984 258.5 59.0984C288.769 59.0984 317.428 44.8219 346.574 30.3027C376.728 15.2813 407.403 0 440.924 0C482.939 0 517 34.2502 517 76.5C517 118.75 482.939 153 440.924 153C410.148 153 379.93 138.241 349.712 123.483C319.493 108.724 289.275 93.9657 258.5 93.9657C227.725 93.9657 197.507 108.724 167.288 123.483C137.07 138.241 106.851 153 76.0764 153C34.0605 153 0 118.75 0 76.5C0 34.2502 34.0605 0 76.0764 0C105.625 0 135.583 14.5321 165.787 29.184Z" fill="white"/>
</svg>
