<svg width="700" height="700" viewBox="0 0 700 700" fill="none" xmlns="http://www.w3.org/2000/svg">
<g filter="url(#filter0_f_2385_9)">
<path d="M547 350C547 458.8 458.8 547 350 547C241.2 547 153 458.8 153 350C153 241.2 241.2 153 350 153C458.8 153 547 241.2 547 350Z" fill="url(#paint0_linear_2385_9)"/>
</g>
<g opacity="0.3" filter="url(#filter1_f_2385_9)">
<path d="M492 350C492 428.424 428.424 492 350 492C271.576 492 208 428.424 208 350C208 271.576 271.576 208 350 208C428.424 208 492 271.576 492 350Z" fill="url(#paint1_linear_2385_9)"/>
</g>
<path d="M256.991 259.377C257.696 260.191 258.132 261.118 258.284 262.144C258.451 263.169 258.342 264.219 257.969 265.278C257.597 266.337 256.956 267.347 256.046 268.309C255.045 269.382 253.94 270.127 252.761 270.542C251.582 270.957 250.416 271.034 249.236 270.791C248.07 270.546 246.99 269.956 246.01 269.02C245.032 268.099 244.365 267.061 244.054 265.903C243.729 264.746 243.754 263.572 244.085 262.385C244.43 261.182 245.104 260.051 246.12 258.977C247.029 258.016 247.993 257.327 249.037 256.88C250.068 256.45 251.108 256.281 252.143 256.377C253.178 256.473 254.122 256.856 255.002 257.508L253.398 259.207C252.806 258.821 252.171 258.616 251.508 258.574C250.845 258.546 250.183 258.68 249.521 258.975C248.86 259.284 248.214 259.753 247.613 260.394C246.904 261.147 246.433 261.922 246.199 262.734C245.965 263.546 245.965 264.352 246.198 265.136C246.431 265.92 246.908 266.653 247.613 267.306C248.319 267.974 249.076 268.403 249.871 268.594C250.665 268.786 251.468 268.742 252.262 268.449C253.058 268.172 253.816 267.649 254.51 266.897C255.126 266.255 255.563 265.585 255.825 264.917C256.1 264.233 256.187 263.58 256.111 262.914C256.037 262.261 255.79 261.639 255.356 261.064L256.96 259.365L256.991 259.377ZM354.966 214.35L349.17 226.507L350.328 226.504L344.357 214.41L340.811 214.426L340.88 227.557L343.093 227.545L343.03 215.131L342.315 215.167L348.499 227.506L350.975 227.485L357.025 215.055L356.303 215.019L356.367 227.447L358.579 227.436L358.51 214.305L354.964 214.321L354.966 214.35ZM444.117 267.831C443.081 266.754 442.389 265.602 442.015 264.391C441.64 263.18 441.606 261.997 441.909 260.827C442.214 259.671 442.851 258.617 443.836 257.678C444.82 256.739 445.895 256.143 447.061 255.904C448.24 255.65 449.42 255.733 450.618 256.166C451.814 256.584 452.925 257.347 453.961 258.424C454.998 259.501 455.689 260.653 456.064 261.864C456.438 263.075 456.473 264.258 456.169 265.428C455.864 266.584 455.227 267.638 454.243 268.577C453.258 269.516 452.184 270.112 451.018 270.35C449.839 270.604 448.658 270.522 447.461 270.089C446.264 269.671 445.154 268.908 444.117 267.831ZM445.614 266.406C446.344 267.174 447.126 267.703 447.929 267.996C448.733 268.289 449.545 268.346 450.363 268.155C451.167 267.964 451.934 267.543 452.622 266.879C453.323 266.215 453.783 265.47 454.004 264.674C454.224 263.877 454.208 263.059 453.958 262.247C453.707 261.42 453.21 260.631 452.48 259.862C451.751 259.109 450.985 258.578 450.166 258.287C449.348 257.995 448.536 257.937 447.733 258.128C446.929 258.318 446.161 258.74 445.474 259.403C444.772 260.068 444.312 260.813 444.092 261.609C443.871 262.405 443.887 263.224 444.153 264.049C444.405 264.876 444.902 265.665 445.632 266.433L445.614 266.406ZM492.333 359.055L492.294 361.358L480.221 361.127L480.261 358.824L492.333 359.055ZM493.511 353.646L493.26 366.806L491.234 366.772L491.484 353.611L493.511 353.646ZM454.303 455.63L445.106 446.261L443.45 447.876L452.064 456.64L451.996 455.093L448.013 459.001C447.447 459.551 446.874 459.852 446.276 459.892C445.68 459.946 445.161 459.715 444.693 459.245C444.225 458.775 444.014 458.238 444.063 457.648C444.112 457.058 444.426 456.487 444.991 455.923L449.135 451.854L447.729 450.43L443.518 454.563C442.819 455.257 442.327 455.975 442.072 456.716C441.804 457.473 441.754 458.21 441.907 458.928C442.061 459.647 442.429 460.301 443.009 460.878C443.575 461.456 444.225 461.836 444.944 462.005C445.664 462.174 446.393 462.137 447.161 461.876C447.915 461.617 448.649 461.154 449.348 460.461L454.315 455.599L454.303 455.63ZM345.505 494.687L345.49 492.755L354.664 492.709L354.679 494.641L345.505 494.687ZM353.156 493.696L354.057 487.829L355.172 489.119L344.973 489.171L344.967 487.179L356.427 487.129L355.399 493.697L356.482 500.262L345.11 500.318L345.104 498.327L355.216 498.283L354.118 499.584L353.158 493.725L353.156 493.696ZM252.07 459.802L250.413 458.196L258.831 449.548L260.488 451.154L252.07 459.802ZM255.211 464.348L245.769 455.178L247.189 453.715L256.632 462.886L255.211 464.348ZM220.349 358.959C220.317 357.966 220.123 357.119 219.765 356.405C219.392 355.692 218.901 355.136 218.265 354.755C217.629 354.374 216.909 354.19 216.091 354.221C215.257 354.239 214.544 354.465 213.922 354.873C213.314 355.28 212.838 355.851 212.494 356.585C212.165 357.318 212.01 358.182 212.027 359.176L212.178 365.006L214.05 364.953L213.908 359.224C213.893 358.42 214.084 357.773 214.48 357.297C214.876 356.822 215.439 356.565 216.143 356.56C216.83 356.541 217.393 356.768 217.815 357.213C218.238 357.672 218.471 358.295 218.486 359.099L218.62 364.594L219.623 363.536L207.323 363.853L207.387 366.161L220.522 365.827L220.348 358.944L220.349 358.959Z" fill="white"/>
<defs>
<filter id="filter0_f_2385_9" x="3" y="3" width="694" height="694" filterUnits="userSpaceOnUse" color-interpolation-filters="sRGB">
<feFlood flood-opacity="0" result="BackgroundImageFix"/>
<feBlend mode="normal" in="SourceGraphic" in2="BackgroundImageFix" result="shape"/>
<feGaussianBlur stdDeviation="75" result="effect1_foregroundBlur_2385_9"/>
</filter>
<filter id="filter1_f_2385_9" x="58" y="58" width="584" height="584" filterUnits="userSpaceOnUse" color-interpolation-filters="sRGB">
<feFlood flood-opacity="0" result="BackgroundImageFix"/>
<feBlend mode="normal" in="SourceGraphic" in2="BackgroundImageFix" result="shape"/>
<feGaussianBlur stdDeviation="75" result="effect1_foregroundBlur_2385_9"/>
</filter>
<linearGradient id="paint0_linear_2385_9" x1="477.854" y1="232.583" x2="126.474" y2="554.394" gradientUnits="userSpaceOnUse">
<stop stop-color="#FFC452"/>
<stop offset="0.605751" stop-color="#FF7DE3"/>
<stop offset="0.99" stop-color="#836BE2"/>
</linearGradient>
<linearGradient id="paint1_linear_2385_9" x1="442.159" y1="265.364" x2="188.879" y2="497.33" gradientUnits="userSpaceOnUse">
<stop stop-color="#FFC452"/>
<stop offset="0.605751" stop-color="#FF7DE3"/>
<stop offset="0.99" stop-color="#836BE2"/>
</linearGradient>
</defs>
</svg>
