<svg width="694" height="634" viewBox="0 0 694 634" fill="none" xmlns="http://www.w3.org/2000/svg">
<g filter="url(#filter0_f_2068_666)">
<circle cx="347" cy="287" r="197" fill="url(#paint0_linear_2068_666)"/>
</g>
<g opacity="0.3" filter="url(#filter1_f_2068_666)">
<circle cx="347" cy="287" r="142" fill="url(#paint1_linear_2068_666)"/>
</g>
<path d="M253.991 196.377C254.695 197.191 255.132 198.118 255.284 199.144C255.451 200.169 255.341 201.219 254.969 202.278C254.596 203.337 253.956 204.348 253.046 205.309C252.045 206.382 250.94 207.127 249.761 207.542C248.582 207.958 247.416 208.035 246.236 207.791C245.07 207.546 243.99 206.956 243.01 206.02C242.032 205.099 241.365 204.061 241.054 202.903C240.729 201.747 240.754 200.573 241.085 199.385C241.43 198.182 242.104 197.052 243.12 195.978C244.029 195.016 244.993 194.327 246.037 193.881C247.068 193.45 248.108 193.282 249.143 193.378C250.178 193.474 251.122 193.856 252.002 194.508L250.398 196.207C249.806 195.822 249.171 195.616 248.508 195.574C247.845 195.546 247.183 195.68 246.521 195.975C245.86 196.284 245.214 196.753 244.613 197.394C243.904 198.147 243.433 198.922 243.199 199.734C242.965 200.547 242.965 201.352 243.198 202.136C243.431 202.921 243.908 203.653 244.613 204.307C245.319 204.975 246.076 205.403 246.871 205.595C247.665 205.786 248.468 205.742 249.262 205.45C250.058 205.172 250.816 204.649 251.51 203.897C252.126 203.255 252.563 202.585 252.825 201.917C253.1 201.233 253.187 200.581 253.111 199.914C253.037 199.261 252.79 198.64 252.356 198.064L253.96 196.365L253.991 196.377ZM351.966 151.35L346.17 163.508L347.328 163.505L341.357 151.41L337.811 151.426L337.88 164.557L340.093 164.546L340.03 152.131L339.315 152.167L345.499 164.506L347.975 164.485L354.025 152.056L353.303 152.019L353.367 164.447L355.579 164.436L355.51 151.305L351.964 151.321L351.966 151.35ZM441.117 204.831C440.08 203.754 439.389 202.602 439.015 201.391C438.64 200.18 438.606 198.997 438.909 197.827C439.214 196.671 439.851 195.617 440.836 194.678C441.82 193.739 442.895 193.143 444.061 192.905C445.24 192.65 446.42 192.733 447.618 193.166C448.814 193.584 449.925 194.347 450.961 195.424C451.998 196.501 452.689 197.653 453.064 198.864C453.438 200.075 453.473 201.258 453.169 202.428C452.864 203.584 452.227 204.638 451.243 205.577C450.258 206.516 449.183 207.112 448.018 207.351C446.839 207.605 445.658 207.522 444.461 207.089C443.264 206.671 442.154 205.908 441.117 204.831ZM442.614 203.406C443.344 204.174 444.126 204.703 444.929 204.996C445.733 205.289 446.545 205.347 447.363 205.155C448.166 204.964 448.934 204.543 449.622 203.88C450.323 203.215 450.783 202.47 451.004 201.674C451.224 200.877 451.208 200.059 450.958 199.247C450.707 198.42 450.21 197.631 449.48 196.862C448.751 196.109 447.984 195.578 447.166 195.287C446.348 194.995 445.536 194.937 444.733 195.128C443.929 195.318 443.161 195.74 442.474 196.403C441.772 197.068 441.312 197.813 441.092 198.609C440.871 199.405 440.887 200.224 441.153 201.049C441.405 201.876 441.902 202.665 442.632 203.434L442.614 203.406ZM489.333 296.056L489.294 298.359L477.221 298.127L477.26 295.824L489.333 296.056ZM490.511 290.646L490.26 303.807L488.234 303.772L488.484 290.611L490.511 290.646ZM451.303 392.63L442.106 383.261L440.45 384.876L449.064 393.64L448.996 392.093L445.013 396.001C444.447 396.551 443.874 396.852 443.276 396.892C442.68 396.946 442.161 396.715 441.693 396.246C441.225 395.776 441.014 395.238 441.063 394.648C441.112 394.058 441.426 393.487 441.991 392.923L446.135 388.854L444.729 387.43L440.518 391.563C439.819 392.257 439.327 392.976 439.072 393.717C438.804 394.473 438.754 395.21 438.907 395.928C439.061 396.647 439.429 397.302 440.009 397.878C440.575 398.457 441.225 398.837 441.944 399.005C442.664 399.174 443.393 399.137 444.161 398.876C444.914 398.617 445.649 398.155 446.348 397.461L451.315 392.6L451.303 392.63ZM342.505 431.688L342.49 429.756L351.664 429.71L351.679 431.641L342.505 431.688ZM350.156 430.697L351.057 424.829L352.172 426.119L341.972 426.171L341.967 424.179L353.427 424.13L352.399 430.697L353.482 437.262L342.11 437.318L342.104 435.327L352.216 435.283L351.118 436.584L350.158 430.726L350.156 430.697ZM249.07 396.802L247.413 395.196L255.831 386.548L257.488 388.155L249.07 396.802ZM252.211 401.349L242.769 392.178L244.189 390.715L253.632 399.886L252.211 401.349ZM217.349 295.959C217.317 294.966 217.123 294.12 216.764 293.405C216.392 292.692 215.901 292.137 215.265 291.755C214.629 291.374 213.909 291.191 213.091 291.221C212.256 291.239 211.544 291.465 210.922 291.873C210.314 292.28 209.838 292.851 209.494 293.585C209.165 294.318 209.01 295.182 209.027 296.176L209.178 302.006L211.05 301.953L210.908 296.224C210.893 295.42 211.084 294.773 211.48 294.298C211.876 293.822 212.439 293.566 213.143 293.56C213.83 293.541 214.393 293.768 214.815 294.213C215.238 294.672 215.471 295.295 215.486 296.1L215.62 301.594L216.623 300.536L204.322 300.853L204.386 303.161L217.521 302.827L217.348 295.944L217.349 295.959Z" fill="white"/>
<defs>
<filter id="filter0_f_2068_666" x="0" y="-60" width="694" height="694" filterUnits="userSpaceOnUse" color-interpolation-filters="sRGB">
<feFlood flood-opacity="0" result="BackgroundImageFix"/>
<feBlend mode="normal" in="SourceGraphic" in2="BackgroundImageFix" result="shape"/>
<feGaussianBlur stdDeviation="75" result="effect1_foregroundBlur_2068_666"/>
</filter>
<filter id="filter1_f_2068_666" x="55" y="-5" width="584" height="584" filterUnits="userSpaceOnUse" color-interpolation-filters="sRGB">
<feFlood flood-opacity="0" result="BackgroundImageFix"/>
<feBlend mode="normal" in="SourceGraphic" in2="BackgroundImageFix" result="shape"/>
<feGaussianBlur stdDeviation="75" result="effect1_foregroundBlur_2068_666"/>
</filter>
<linearGradient id="paint0_linear_2068_666" x1="474.854" y1="169.583" x2="123.474" y2="491.394" gradientUnits="userSpaceOnUse">
<stop stop-color="#FFC452"/>
<stop offset="0.605751" stop-color="#FF7DE3"/>
<stop offset="0.99" stop-color="#836BE2"/>
</linearGradient>
<linearGradient id="paint1_linear_2068_666" x1="439.159" y1="202.364" x2="185.879" y2="434.33" gradientUnits="userSpaceOnUse">
<stop stop-color="#FFC452"/>
<stop offset="0.605751" stop-color="#FF7DE3"/>
<stop offset="0.99" stop-color="#836BE2"/>
</linearGradient>
</defs>
</svg>
